# xmcd
#
# Track frame offsets:
#   150
#   18986
#   41500
#   54176
#   69474
#   79678
#   91074
#   102222
#   127626
#   141599
#   153474
#   171496
#   182331
#   193315
#   206443
#   221126
#   235580
#   250749
#   267573
#   283011
#
# Disc length: 3929 seconds
#
# Revision: 0
# Processed by: cddbd v1.5.2PL0 Copyright (c) Steve Scherf et al.
# Submitted via: uFREEDB ActiveX Control 1.5
#
DISCID=170f5714
DTITLE=Tiziu do Araripe - Mistura de Raça
DYEAR=1900
DGENRE=Forró
TTITLE0=Mistura de Raça
TTITLE1=A voz do tempo
TTITLE2=Balanço bom
TTITLE3=Eu gosto
TTITLE4=Sofri por te amar
TTITLE5=Forró Caju
TTITLE6=Forró com biriteiro
TTITLE7=O Progresso brasileiro
TTITLE8=Gamadim gamadim
TTITLE9=Pra que beber
TTITLE10=Amor mendigado
TTITLE11=A poeira voa
TTITLE12=Senhor do Bonfim
TTITLE13=Fruta de forquilha
TTITLE14=Gennaro sanfoneiro
TTITLE15=Visita ao Piauí
TTITLE16=Afogar a tristeza
TTITLE17=Show do Corinthians
TTITLE18=Sofrendo apaixonado
TTITLE19=Fungado no cangote
EXTD=
EXTT0=
EXTT1=
EXTT2=
EXTT3=
EXTT4=
EXTT5=
EXTT6=
EXTT7=
EXTT8=
EXTT9=
EXTT10=
EXTT11=
EXTT12=
EXTT13=
EXTT14=
EXTT15=
EXTT16=
EXTT17=
EXTT18=
EXTT19=
PLAYORDER=
